<svg width="1353" height="768" viewBox="0 0 1353 768" xmlns="http://www.w3.org/2000/svg">
  <defs>
    <linearGradient id="bg1" x1="0%" y1="0%" x2="50%" y2="100%">
      <stop offset="0%" stop-color="#062b27"/>
      <stop offset="100%" stop-color="#05160f"/>
    </linearGradient>
    <radialGradient id="glow1" cx="30%" cy="30%" r="60%">
      <stop offset="0" stop-color="#1f8a70" stop-opacity="0.6"/>
      <stop offset="1" stop-color="#02130f" stop-opacity="0"/>
    </radialGradient>
  </defs>
  <rect width="100%" height="100%" fill="url(#bg1)"/>
  <rect width="100%" height="100%" fill="url(#glow1)"/>
  <g fill="#0f2d27" opacity="0.9">
    <rect x="160" y="250" width="260" height="60" rx="30"/>
    <rect x="460" y="310" width="300" height="60" rx="30"/>
    <rect x="820" y="260" width="260" height="60" rx="30"/>
    <rect x="220" y="380" width="300" height="60" rx="30"/>
    <rect x="560" y="440" width="260" height="60" rx="30"/>
    <rect x="900" y="360" width="240" height="60" rx="30"/>
  </g>
  <g fill="#1e6152">
    <rect x="210" y="340" width="260" height="60" rx="30"/>
    <rect x="520" y="390" width="280" height="60" rx="30"/>
    <rect x="860" y="420" width="260" height="60" rx="30"/>
  </g>
  <g fill="#62f5ca" font-family="Inter, Arial, sans-serif" text-anchor="middle">
    <text x="676" y="560" font-size="18" fill="#6bdba5" letter-spacing="0.5em">TUDO PRONTO PARA O SORTEIO</text>
    <text x="676" y="620" font-size="36" font-weight="600" fill="#e7fff5">Todos os participantes carregados</text>
    <text x="676" y="660" font-size="20" fill="#9bb0a4">Vamos iniciar o sorteio com transparência total.</text>
  </g>
</svg>
