<svg width="1353" height="768" viewBox="0 0 1353 768" xmlns="http://www.w3.org/2000/svg">
  <defs>
    <linearGradient id="bg2" x1="0%" y1="0%" x2="70%" y2="100%">
      <stop offset="0%" stop-color="#041f1b"/>
      <stop offset="100%" stop-color="#020b08"/>
    </linearGradient>
    <radialGradient id="glow2" cx="70%" cy="40%" r="60%">
      <stop offset="0" stop-color="#1d7c63" stop-opacity="0.7"/>
      <stop offset="1" stop-color="#010806" stop-opacity="0"/>
    </radialGradient>
  </defs>
  <rect width="100%" height="100%" fill="url(#bg2)"/>
  <rect width="100%" height="100%" fill="url(#glow2)"/>
  <g fill="none" stroke="#114b3d" stroke-width="2" opacity="0.8">
    <path d="M220 320c120-60 280-100 456-100s336 40 456 100" stroke-linecap="round"/>
    <path d="M220 380c120-60 280-100 456-100s336 40 456 100" stroke-linecap="round"/>
    <path d="M220 440c120-60 280-100 456-100s336 40 456 100" stroke-linecap="round"/>
  </g>
  <g fill="#0f332a">
    <rect x="320" y="310" width="200" height="120" rx="30"/>
    <rect x="590" y="270" width="200" height="120" rx="30"/>
    <rect x="860" y="310" width="200" height="120" rx="30"/>
    <rect x="470" y="380" width="200" height="120" rx="30"/>
    <rect x="740" y="380" width="200" height="120" rx="30"/>
  </g>
  <g fill="#27c59a">
    <rect x="610" y="410" width="200" height="120" rx="30"/>
  </g>
  <g fill="#62f5ca" font-family="Inter, Arial, sans-serif" text-anchor="middle">
    <text x="676" y="580" font-size="18" fill="#6bdba5" letter-spacing="0.4em">PROCESSANDO</text>
    <text x="676" y="630" font-size="34" font-weight="600" fill="#e7fff5">Aguardando o resultado...</text>
    <text x="676" y="670" font-size="20" fill="#9bb0a4">A roleta está girando para revelar o vencedor.</text>
  </g>
</svg>
