<svg xmlns="http://www.w3.org/2000/svg" version="1.1" xmlns:xlink="http://www.w3.org/1999/xlink" width="1000" height="1000"><g clip-path="url(#SvgjsClipPath1127)"><rect width="1000" height="1000" fill="#ffffff"></rect><g transform="matrix(1.7578125,0,0,1.7578125,50,50)"><svg xmlns="http://www.w3.org/2000/svg" version="1.1" xmlns:xlink="http://www.w3.org/1999/xlink" width="512" height="512"><svg id="Camada_1" xmlns="http://www.w3.org/2000/svg" version="1.1" viewBox="0 0 512 512">
  <!-- Generator: Adobe Illustrator 29.8.0, SVG Export Plug-In . SVG Version: 2.1.1 Build 160)  -->
  <defs>
    <style>
      .st0 {
        fill: #69b42d;
      }
    </style>
  <clipPath id="SvgjsClipPath1127"><rect width="1000" height="1000" x="0" y="0" rx="350" ry="350"></rect></clipPath></defs>
  <path class="st0" d="M157.68,381.07h-73.75c-4.52,0-9.3.09-12.08-4.52-2.94-4.87-.85-9.13,1.79-13.36,8.62-13.61,17.07-27.36,25.78-40.93,1.62-2.52,1.54-4.18-.21-6.66-21.85-30.81-30.47-65.13-27.83-102.77,4.65-67.22,56.76-127.57,127.4-139.26,89.5-14.81,165.81,45.24,179.3,126.16,11.01,66.24-19.16,127.4-73.41,159.45-16.47,9.73-34.14,16.86-53.22,19.5-9.82,1.37-19.85,1.88-29.79,2.01-21.3.3-42.64.09-63.93.09v.34l-.04-.04ZM97.24,361.95c1.32.17,1.79.3,2.26.3,40.33,0,80.71.13,121.04-.13,8.92-.04,17.93-.55,26.67-2.13,45.8-8.37,80.15-32.39,100.81-74.77,12.29-25.14,17.07-51.43,12.29-79.26-7.21-41.91-28.08-74.86-64.74-96.84-26.12-15.66-54.59-22.24-85.15-18.48-33.67,4.14-62.53,18.1-85.19,43.45-30.6,34.19-41.1,74.35-32.74,119.29,3.84,20.78,13.02,39.35,26.03,56,4.14,5.25,4.57,10.24.94,15.92-5.21,8.19-10.12,16.56-15.15,24.84-2.26,3.71-4.48,7.47-7.08,11.78v.04Z"></path>
  <path class="st0" d="M416.06,424.86c-4.52-7.26-8.49-13.57-12.38-19.85-3.71-5.98-7.51-11.95-11.14-18.01-3.76-6.27-3.67-8.11.9-13.96,10.5-13.44,18.44-28.21,23.47-44.51,10.84-35.21,7.26-69.14-9.13-101.92-1.28-2.6-2.73-5.12-4.01-7.68-2.35-4.69-1.07-10.24,2.94-12.72,4.48-2.73,10.16-1.41,13.15,3.46,7.6,12.42,13.32,25.78,16.69,39.91,10.97,46.31,3.93,89.5-23.43,128.89-1.96,2.82-1.71,4.87,0,7.47,7.9,12.42,15.71,24.92,23.52,37.43,1.41,2.22,2.77,4.52,3.88,6.91,2.69,5.63-.81,12.04-7.04,12.51-4.01.3-8.07-.09-12.08-.09-47.03,0-94.07.04-141.14-.13-20.87-.09-40.59-5.46-59.24-14.64-4.18-2.05-8.15-4.52-12.33-6.57-5.63-2.73-5.72-9.13-3.8-12.97,2.05-4.1,7.55-5.42,12.55-3.03,6.49,3.07,12.76,6.57,19.42,9.3,16.6,6.79,33.89,10.33,51.9,10.33,40.84-.04,81.73-.09,122.58-.13h4.78-.04Z"></path>
  <path class="st0" d="M225.54,185.43h-60.48c-3.63,0-7.08-.17-9.52-3.46-4.48-5.98-1.49-14.17,5.89-14.94,6.87-.68,13.83-.38,20.74-.38h101.32c1.62,0,3.29,0,4.91.21,5.8.77,8.92,4.4,8.66,9.9-.26,5.12-3.84,8.49-9.56,8.54-20.66.09-41.31,0-62.01,0v.09l.04.04Z"></path>
  <path class="st0" d="M225.32,216.97h62.01c5.38,0,8.62,2.65,9.43,7.34,1.02,5.93-2.05,10.2-8.07,10.93-2.6.34-5.29.26-7.94.26-37.05.09-74.13.17-111.18.21-2.77,0-5.55-.13-8.28-.6-5.25-.9-8.32-5.16-7.77-10.33.51-4.82,4.05-7.94,9.35-7.94h62.4v.09l.04.04Z"></path>
  <path class="st0" d="M200.06,285.09h-35.51c-6.7,0-11.05-3.54-11.1-9.13-.04-5.55,4.69-9.69,11.22-9.69h69.14c1.88,0,3.8.21,5.59.68,4.74,1.28,8.02,5.8,7.55,9.99-.51,4.48-3.88,7.72-9.09,7.85-9.18.26-18.39.17-27.57.17h-10.2v.09l-.04.04Z"></path>
</svg></svg></g></g></svg>