<svg width="256" height="256" viewBox="0 0 256 256" fill="none" xmlns="http://www.w3.org/2000/svg">
  <rect width="256" height="256" rx="80" fill="url(#paint0_radial_2_1)" />
  <g filter="url(#filter0_d_2_1)">
    <circle cx="128" cy="120" r="60" fill="#FFE0E8" />
  </g>
  <path d="M88 188C98 170 112 158 128 158C144 158 158 170 168 188" stroke="#24111F" stroke-width="10" stroke-linecap="round" />
  <circle cx="108" cy="128" r="9" fill="#24111F" />
  <circle cx="148" cy="128" r="9" fill="#24111F" />
  <path d="M100 108C100 100 108 94 118 94" stroke="#24111F" stroke-width="8" stroke-linecap="round" />
  <path d="M156 108C156 100 148 94 138 94" stroke="#24111F" stroke-width="8" stroke-linecap="round" />
  <path d="M84 114C86 92 106 78 128 78C150 78 170 92 172 114" stroke="#24111F" stroke-width="14" stroke-linecap="round" />
  <defs>
    <filter id="filter0_d_2_1" x="52" y="60" width="152" height="152" filterUnits="userSpaceOnUse" color-interpolation-filters="sRGB">
      <feFlood flood-opacity="0" result="BackgroundImageFix" />
      <feColorMatrix in="SourceAlpha" type="matrix" values="0 0 0 0 0 0 0 0 0 0 0 0 0 0 0 0 0 0 127 0" result="hardAlpha" />
      <feOffset dy="6" />
      <feGaussianBlur stdDeviation="12" />
      <feColorMatrix type="matrix" values="0 0 0 0 0.101961 0 0 0 0 0.027451 0 0 0 0 0.180392 0 0 0 0.35 0" />
      <feBlend mode="normal" in2="BackgroundImageFix" result="effect1_dropShadow" />
      <feBlend mode="normal" in="SourceGraphic" in2="effect1_dropShadow" result="shape" />
    </filter>
    <radialGradient id="paint0_radial_2_1" cx="0" cy="0" r="1" gradientUnits="userSpaceOnUse" gradientTransform="translate(40 40) rotate(35) scale(340)">
      <stop stop-color="#F472B6" />
      <stop offset="0.5" stop-color="#DB2777" />
      <stop offset="1" stop-color="#020617" />
    </radialGradient>
  </defs>
</svg>
